<svg xmlns="http://www.w3.org/2000/svg" class="feather feather-file-text" fill="none" stroke="grey" stroke-linecap="round" stroke-linejoin="round" stroke-width="1.75" viewBox="0 0 24 24" width="24" height="24">
    <path
       d="m 14.159535,14.413221 1.283407,0.54326 0.604825,-1.365489 h 1.711212 l 0.678584,1.600411 1.430928,-0.367067 1.017876,1.336126 -0.737592,1.233343 1.29816,1.013105 -0.516314,1.688508 -1.607947,0.08808 0.04424,1.527 -1.563692,0.822231 -1.209651,-1.145251 -1.062131,1.04247 -1.696462,-0.954372 0.324542,-1.600414 -1.519435,-0.278957 -0.280285,-1.747239 1.283409,-0.734134 -0.737591,-1.365487 z"
       />
    <ellipse
       ry="1.7986283"
       rx="1.725964"
       cy="18.053883"
       cx="16.934706"
       style="fill:none;stroke:#000000;stroke-width:1;stroke:grey; stroke-linecap:round;stroke-linejoin:round;stroke-miterlimit:4;stroke-dasharray:none;stroke-opacity:1" />
    <path
       d="m 10.280046,18.787677 -7.1372337,-0.126073 -0.043927,-7.09609 c 0,0 0.4636469,-1.201559 1.1503343,-1.6631322 C 4.718504,9.5869412 5.9650548,9.4648753 5.9650548,9.4648753 l 9.6832032,-0.0243 C 17.249542,9.9449554 17.5931,11.521423 17.5931,11.521423"
       />
    <path
       d="m 6.5,18.5 0.071328,-4.63634"
       />
    <circle
       r="3.25"
       cy="4.2769117"
       cx="11.253654"
       />
</svg>